<svg width="28" height="28" viewBox="0 0 28 28" fill="none" xmlns="http://www.w3.org/2000/svg">
<path d="M0.135262 7.73028C-0.427828 5.63059 0.818623 3.47074 2.91791 2.91301L13.2777 0.135288C15.377 -0.427911 17.5364 0.818783 18.0995 2.91848L20.8766 13.2803C21.4397 15.38 20.1933 17.5398 18.094 18.103L7.73424 20.8807C5.63495 21.4439 3.47553 20.1972 2.91244 18.0975L0.135262 7.73028ZM11.3807 8.98791C10.8394 8.65437 10.1561 8.64343 9.60391 8.9551C9.05176 9.26678 8.71281 9.85732 8.71828 10.4971C8.72375 11.1314 9.07363 11.711 9.63125 12.0172C10.1725 12.3507 10.8558 12.3616 11.408 12.05C11.9601 11.7383 12.2991 11.1478 12.2936 10.508C12.2882 9.87372 11.9383 9.29412 11.3807 8.98791ZM12.0531 4.32921C11.7196 4.87054 11.7087 5.55403 12.0203 6.1063C12.3319 6.65856 12.9223 6.99758 13.5619 6.99211C14.1961 6.98664 14.7756 6.63669 15.0817 6.07896C15.4152 5.53763 15.4262 4.85414 15.1145 4.30187C14.8029 3.74961 14.2125 3.4106 13.5729 3.41606C12.9387 3.42153 12.3592 3.77148 12.0531 4.32921ZM17.3232 14.4449C17.6566 13.9036 17.6676 13.2201 17.356 12.6678C17.0444 12.1156 16.4539 11.7766 15.8143 11.782C15.1801 11.7875 14.6007 12.1375 14.2945 12.6952C13.961 13.2365 13.9501 13.92 14.2617 14.4723C14.5733 15.0245 15.1637 15.3636 15.8034 15.3581C16.4375 15.3526 17.017 15.0027 17.3232 14.4449ZM5.93017 14.9371C5.59669 15.4784 5.58575 16.1619 5.89736 16.7141C6.20898 17.2664 6.7994 17.6054 7.43903 17.5999C8.07319 17.5945 8.65268 17.2445 8.95882 16.6868C9.2923 16.1455 9.30324 15.462 8.99162 14.9097C8.68001 14.3574 8.08959 14.0184 7.44996 14.0239C6.8158 14.0294 6.23631 14.3793 5.93017 14.9371ZM6.7174 8.32082C7.05088 7.77949 7.06181 7.096 6.7502 6.54374C6.43859 5.99147 5.84816 5.65246 5.20854 5.65793C4.57438 5.66339 3.99489 6.01334 3.68874 6.57107C3.35526 7.1124 3.34433 7.7959 3.65594 8.34816C3.96755 8.90042 4.55798 9.23944 5.1976 9.23397C5.83176 9.2285 6.41125 8.87855 6.7174 8.32082ZM10.506 22.8547L18.7719 20.6347C22.2707 19.6942 24.3481 16.0963 23.4133 12.5968L22.8502 10.5025H24.5012C26.431 10.5025 28 12.0718 28 14.002V24.5005C28 26.4307 26.431 28 24.5012 28H14.0048C12.0749 28 10.506 26.4307 10.506 24.5005V22.8547Z" fill="#EFF2F9"/>
</svg>
