<svg width="28" height="28" viewBox="0 0 28 28" fill="none" xmlns="http://www.w3.org/2000/svg">
<path d="M10.5296 1.65C10.6866 0.924509 11.372 0.4 12.1674 0.4H15.2964C16.0917 0.4 16.7772 0.924509 16.9342 1.65L17.6929 5.08137C18.4307 5.37549 19.1214 5.75294 19.7493 6.19902L23.2969 5.09608C24.0504 4.86078 24.8771 5.1549 25.2748 5.80196L26.8393 8.34118C27.237 8.98823 27.0957 9.80196 26.4992 10.2971L23.7103 12.6206C23.7573 12.9833 23.7783 13.3559 23.7783 13.7333C23.7783 14.1108 23.7521 14.4833 23.7103 14.8461L26.5044 17.1745C27.1009 17.6696 27.237 18.4882 26.8445 19.1304L25.28 21.6696C24.8823 22.3118 24.0556 22.6108 23.3021 22.3755L19.7545 21.2725C19.1214 21.7186 18.4307 22.0912 17.6981 22.3902L16.9446 25.8167C16.7824 26.5471 16.097 27.0667 15.3069 27.0667H12.1778C11.3825 27.0667 10.697 26.5422 10.5401 25.8167L9.78659 22.3902C9.0488 22.0961 8.36335 21.7186 7.73022 21.2725L4.16689 22.3755C3.41341 22.6108 2.58667 22.3167 2.18901 21.6696L0.62449 19.1304C0.22682 18.4833 0.368098 17.6696 0.964602 17.1745L3.75875 14.8461C3.71166 14.4833 3.69073 14.1108 3.69073 13.7333C3.69073 13.3559 3.71689 12.9833 3.75875 12.6206L0.964602 10.2922C0.368098 9.79706 0.232053 8.97843 0.62449 8.33627L2.18901 5.79706C2.58667 5.15 3.41341 4.85588 4.16689 5.09118L7.71452 6.19412C8.34765 5.74804 9.03834 5.37549 9.77089 5.07647L10.5296 1.65ZM13.7319 17.6549C16.0446 17.6451 17.9126 15.8853 17.9022 13.7186C17.8917 11.552 16.0133 9.80196 13.7005 9.81176C11.3877 9.82157 9.51973 11.5814 9.53019 13.748C9.54066 15.9147 11.4191 17.6647 13.7319 17.6549Z" fill="#EFF2F9"/>
</svg>
