<svg width="28" height="28" viewBox="0 0 28 28" fill="none" xmlns="http://www.w3.org/2000/svg">
<path d="M22.7511 11.3733C22.7511 13.8831 21.9362 16.2015 20.5635 18.0825L27.4873 25.0104C28.1709 25.6939 28.1709 26.8039 27.4873 27.4874C26.8037 28.1709 25.6934 28.1709 25.0098 27.4874L18.086 20.5595C16.2047 21.9319 13.8858 22.7467 11.3756 22.7467C5.09166 22.7467 0 17.656 0 11.3733C0 5.09066 5.09166 0 11.3756 0C17.6595 0 22.7511 5.09066 22.7511 11.3733ZM11.3756 19.2472C15.7234 19.2472 19.2509 15.7204 19.2509 11.3733C19.2509 7.02631 15.7234 3.49949 11.3756 3.49949C7.02769 3.49949 3.50017 7.02631 3.50017 11.3733C3.50017 15.7204 7.02769 19.2472 11.3756 19.2472Z" fill="#EFF2F9"/>
</svg>
